Coordinates
version=1
nRows=14
nColumns=36
inDegrees=yes

Units are S.I. units (second, meters, Newtons, ...)
If the header above contains a line with 'inDegrees', this indicates whether rotational values are in degrees (yes) or radians (no).

endheader
time	pelvis_tilt	pelvis_list	pelvis_rotation	pelvis_tx	pelvis_ty	pelvis_tz	hip_flexion_r	hip_adduction_r	hip_rotation_r	knee_angle_r	knee_angle_r_beta	ankle_angle_r	subtalar_angle_r	mtp_angle_r	hip_flexion_l	hip_adduction_l	hip_rotation_l	knee_angle_l	knee_angle_l_beta	ankle_angle_l	subtalar_angle_l	mtp_angle_l	lumbar_extension	lumbar_bending	lumbar_rotation	arm_flex_r	arm_add_r	arm_rot_r	elbow_flex_r	pro_sup_r	arm_flex_l	arm_add_l	arm_rot_l	elbow_flex_l	pro_sup_l
      2.84000000	    -27.37470080	      0.28141425	     -3.61896413	     -0.41087954	      0.63551988	     -0.57775231	     93.35261461	     -5.96603984	      1.10152876	     88.97325382	      1.55287623	     26.90766356	     -7.81085521	     -7.49999987	     93.51430734	    -10.36864295	      6.20275541	     89.75636015	      1.56654401	     26.82326009	     -1.52035288	     -7.49999987	    -18.31818833	      0.90596155	     -1.33272648	     21.19148440	    -20.23678961	     17.94216314	    128.10347230	    100.27262431	     26.79823746	    -21.42446231	     12.66986829	    124.53442709	     98.81764128
      2.85000000	    -27.78302854	      0.12449071	     -3.63686300	     -0.40757953	      0.64265201	     -0.57769185	     92.51478610	     -5.80933008	      0.84817559	     87.63654984	      1.52954634	     26.56958288	     -8.42244457	     -7.49999987	     92.75684041	    -10.13795252	      6.38074261	     88.49932222	      1.54460456	     26.32794476	     -2.66123042	     -7.49999987	    -17.55037821	      1.11049237	     -1.31623804	     20.07894292	    -20.20390599	     17.30996673	    128.35137784	    100.46875885	     25.64650078	    -20.96218103	     12.17295454	    124.69268804	     98.91631606
      2.86000000	    -28.02530756	      0.09050094	     -3.64717079	     -0.40420065	      0.65029609	     -0.57749085	     91.51766334	     -5.70173474	      0.72446352	     86.30834469	      1.50636479	     26.44962003	     -8.39340090	     -7.49999987	     91.74924633	     -9.99406543	      6.39792899	     87.18316418	      1.52163327	     26.23391390	     -2.75887990	     -7.49999987	    -16.84838792	      1.12454478	     -1.34991573	     19.08355782	    -20.28130172	     17.27251401	    128.42576921	    100.52007803	     24.53168980	    -20.78073530	     12.28240273	    124.76017624	     98.94856060
      2.87000000	    -28.23980014	      0.06135405	     -3.67870700	     -0.40077120	      0.65832237	     -0.57725355	     90.45581191	     -5.59003125	      0.58021839	     84.89920567	      1.48177067	     26.32854798	     -8.37437196	     -7.49999987	     90.67614137	     -9.90396348	      6.36572610	     85.80642616	      1.49760466	     26.11591729	     -2.85210909	     -7.49999987	    -16.12781971	      1.13194996	     -1.34858912	     17.98469505	    -20.32106100	     17.20342003	    128.49431326	    100.56005526	     23.29753342	    -20.54630270	     12.34901766	    124.82410008	     98.97394956
      2.88000000	    -28.38266740	      0.05253819	     -3.69944011	     -0.39719379	      0.66682544	     -0.57708699	     89.27397833	     -5.52220278	      0.41520198	     83.40290917	      1.45565537	     26.21527878	     -8.37662371	     -7.49999987	     89.48175639	     -9.84818495	      6.23931560	     84.36301507	      1.47241238	     25.97024581	     -2.92226166	     -7.49999987	    -15.43707482	      1.11395603	     -1.36139775	     16.80739731	    -20.37137424	     17.16088218	    128.55175813	    100.58908345	     21.97968373	    -20.29725815	     12.42118050	    124.87259205	     98.99585089
      2.89000000	    -28.38451415	     -0.05179266	     -3.75929219	     -0.39371261	      0.67604308	     -0.57704093	     87.80818526	     -5.31321673	      0.23352423	     81.63003014	      1.42471279	     25.26999336	     -9.63115311	     -7.49999987	     88.11547644	     -9.79874663	      6.13785839	     82.71931088	      1.44372433	     24.81381148	     -4.61952280	     -7.49999987	    -14.96851794	      1.20978072	     -1.00172059	     15.30817678	    -20.23835624	     16.00919615	    128.89880580	    100.99698630	     21.02719408	    -19.54506762	     11.99663701	    124.79954256	     99.17771555
      2.90000000	    -28.30925170	     -0.07112211	     -3.81754423	     -0.38993444	      0.68539572	     -0.57705905	     86.28625528	     -5.22186563	      0.06619351	     79.90107475	      1.39453683	     25.11391200	     -9.56514849	     -7.49999987	     86.59504285	     -9.81153519	      5.93732879	     81.08972765	      1.41528274	     24.66734966	     -4.60758159	     -7.49999987	    -14.42972068	      1.21426324	     -0.98555642	     14.17291448	    -20.23089492	     15.86147927	    128.98739255	    101.05195834	     19.80165648	    -19.21098294	     11.93268156	    124.85590752	     99.21032917
      2.91000000	    -28.18058217	     -0.09941266	     -3.83789395	     -0.38604750	      0.69488552	     -0.57711134	     84.69869619	     -5.14967120	     -0.06573796	     78.17335777	      1.36438248	     24.90097494	     -9.53299146	     -7.49999987	     85.00556132	     -9.80426076	      5.72017288	     79.42011978	      1.38614258	     24.45576591	     -4.62874288	     -7.49999987	    -13.88667932	      1.27341320	     -0.95961464	     12.96103345	    -20.18980355	     15.65792344	    129.11551064	    101.09998528	     18.48919538	    -18.89501126	     11.86772437	    124.93587391	     99.24527794
      2.92000000	    -28.00878762	     -0.10501581	     -3.78077368	     -0.38212166	      0.70452730	     -0.57713327	     83.05557382	     -5.16536061	     -0.22969031	     76.40914630	      1.33359118	     24.66163829	     -9.51916489	     -7.49999987	     83.34412568	     -9.71210095	      5.51328973	     77.66570310	      1.35552223	     24.21159128	     -4.65320962	     -7.49999987	    -13.31964557	      1.27168760	     -0.99395828	     11.74470954	    -20.13043345	     15.45386442	    129.28296418	    101.14826029	     17.15480017	    -18.59692118	     11.85458158	    125.01945929	     99.28169937
      2.93000000	    -27.61980181	     -0.10325501	     -3.72023300	     -0.37794710	      0.71466803	     -0.57727492	     81.15333378	     -5.24795632	     -0.48591461	     74.57081038	      1.30150617	     24.28916805	     -9.65123426	     -7.49999987	     81.40699143	     -9.62334420	      5.21038539	     75.84711782	      1.32378193	     23.83084150	     -4.84392964	     -7.49999987	    -12.98152664	      1.27079707	     -1.02342992	     10.54087709	    -19.99157576	     15.00558551	    129.48092765	    101.22607499	     15.82422334	    -18.22011214	     11.72368341	    125.10663189	     99.32844341
      2.94000000	    -27.15139756	     -0.14986092	     -3.67807672	     -0.37357313	      0.72505374	     -0.57746705	     79.11223625	     -5.30040154	     -0.76345504	     72.65309722	      1.26803576	     23.76419312	     -9.92787554	     -7.49999987	     79.35812220	     -9.59023984	      4.89865982	     73.95114635	      1.29069099	     23.27415259	     -5.23271706	     -7.49999987	    -12.68928601	      1.30839453	     -0.98662461	      9.29995534	    -19.89134478	     14.51849420	    129.68345497	    101.37024246	     14.56699059	    -17.86979435	     11.65230968	    125.19550539	     99.41116963
      2.95000000	    -26.90062599	     -0.19049983	     -3.62131330	     -0.36919705	      0.73518680	     -0.57768660	     77.28005321	     -5.35801096	     -0.99772421	     70.68948274	      1.23376422	     23.43723626	     -9.80877161	     -7.49999987	     77.51627351	     -9.54264800	      4.61880287	     71.96509025	      1.25602777	     22.91815608	     -5.21921032	     -7.49999987	    -12.05690593	      1.34246940	     -1.00414296	      8.07635093	    -19.87301234	     14.40764876	    129.83143959	    101.43668496	     13.24937624	    -17.61530459	     11.75655196	    125.30729199	     99.46437196
      2.96000000	    -26.44820845	     -0.23920230	     -3.59797234	     -0.36467576	      0.74566757	     -0.57772714	     75.21726884	     -5.37646244	     -1.24840664	     68.70049439	      1.19904982	     23.05775650	     -9.63784347	     -7.49999987	     75.44071291	     -9.57700548	      4.28188934	     69.95102642	      1.22087573	     22.48267638	     -5.21027472	     -7.49999987	    -11.65376508	      1.34215597	     -0.99529388	      6.87327969	    -19.81570522	     14.18567877	    130.00870775	    101.50380132	     11.94368730	    -17.31862489	     11.73548373	    125.43345174	     99.51706110
      2.97000000	    -25.63092951	     -0.27267374	     -3.67863756	     -0.35997624	      0.75678224	     -0.57760510	     72.73423068	     -5.30729996	     -1.50544103	     66.58551100	      1.16213640	     22.50433575	     -9.70050331	     -7.49999987	     72.92385321	     -9.72640681	      3.81204751	     67.88463023	      1.18481031	     21.76290293	     -5.51770831	     -7.49999987	    -11.72351810	      1.30895687	     -0.82346393	      5.70501173	    -19.69219749	     13.66386990	    130.29958711	    101.69305324	     10.77724437	    -16.97127156	     11.58969935	    125.58450927	     99.64049930
